# Blender v2.82 (sub 7) OBJ File: 'eye2.blend'
# www.blender.org
mtllib eye2.mtl
o KitCat_clock.003
v -0.006540 -0.003657 -0.000067
v -0.005652 -0.003150 0.002846
v -0.006531 0.000133 0.002848
v -0.007555 0.000133 -0.000065
v 0.005719 0.003415 0.002815
v 0.003321 0.002028 0.004956
v 0.003829 0.000133 0.004955
v 0.006598 0.000133 0.002813
v -0.003765 -0.006432 -0.000075
v -0.003250 -0.005553 0.002839
v 0.003315 0.005818 0.002822
v 0.001934 0.003415 0.004959
v 0.000025 -0.007448 -0.000085
v 0.000033 -0.006432 0.002830
v 0.000033 0.006698 0.002830
v 0.000039 0.003923 0.004964
v 0.003816 -0.006432 -0.000096
v 0.003315 -0.005553 0.002822
v -0.003250 0.005818 0.002839
v -0.001856 0.003415 0.004970
v 0.006591 -0.003657 -0.000103
v 0.005719 -0.003150 0.002815
v -0.005652 0.003415 0.002846
v -0.003244 0.002028 0.004974
v 0.007606 0.000133 -0.000105
v -0.003751 0.000133 0.004975
v 0.006591 0.003923 -0.000103
v -0.003244 -0.001762 0.004974
v 0.003816 0.006698 -0.000096
v -0.001856 -0.003150 0.004970
v 0.000025 0.007714 -0.000085
v 0.000039 -0.003657 0.004964
v -0.003765 0.006698 -0.000075
v 0.001934 -0.003150 0.004959
v -0.006540 0.003923 -0.000067
v 0.003321 -0.001762 0.004956
v -0.001658 -0.000848 0.005551
v -0.001922 0.000133 0.005553
v 0.001740 0.001114 0.005543
v 0.002002 0.000133 0.005542
v -0.000941 -0.001566 0.005550
v 0.001021 0.001832 0.005544
v 0.000040 -0.001829 0.005547
v 0.000040 0.002095 0.005547
v 0.001021 -0.001566 0.005544
v -0.000941 0.001832 0.005550
v 0.001740 -0.000848 0.005543
v -0.001658 0.001114 0.005551
v -0.000390 0.000879 0.005548
v 0.000040 0.000994 0.005547
v 0.000040 0.000125 0.005547
v 0.000472 0.000129 0.005546
v 0.000472 0.000879 0.005546
v -0.000388 0.000122 0.005548
v -0.000816 0.000118 0.005549
v -0.000705 -0.000298 0.005549
v -0.000390 -0.000613 0.005548
v 0.000902 0.000133 0.005545
v 0.000786 0.000563 0.005545
v 0.000786 -0.000298 0.005545
v 0.000472 -0.000613 0.005546
v -0.000705 0.000563 0.005549
v 0.000040 -0.000728 0.005547
vt 0.639468 0.370240
vt 0.651176 0.398646
vt 0.629275 0.397864
vt 0.717215 0.417507
vt 0.702867 0.400028
vt 0.722872 0.399573
vt 0.660229 0.350817
vt 0.657197 0.381930
vt 0.703671 0.430558
vt 0.700335 0.407785
vt 0.687457 0.344280
vt 0.670204 0.370280
vt 0.685978 0.415875
vt 0.685464 0.435227
vt 0.704117 0.370302
vt 0.714462 0.351762
vt 0.667253 0.430196
vt 0.717282 0.382325
vt 0.734606 0.372279
vt 0.672024 0.407259
vt 0.654344 0.416515
vt 0.741773 0.400113
vt 0.734491 0.428205
vt 0.673072 0.391624
vt 0.670428 0.399297
vt 0.713239 0.448490
vt 0.679133 0.386191
vt 0.684773 0.455915
vt 0.687059 0.366084
vt 0.656770 0.448314
vt 0.694874 0.386516
vt 0.687061 0.384327
vt 0.636346 0.426779
vt 0.700788 0.392059
vt 0.679881 0.395895
vt 0.693288 0.403723
vt 0.682869 0.393167
vt 0.694316 0.413664
vt 0.686816 0.392216
vt 0.690305 0.406540
vt 0.690715 0.393332
vt 0.677705 0.413396
vt 0.686289 0.407567
vt 0.679511 0.403570
vt 0.693525 0.396104
vt 0.684688 0.402738
vt 0.682310 0.406469
vt 0.686553 0.399823
vt 0.688189 0.402770
vt 0.686430 0.403219
vt 0.684816 0.399789
vt 0.683610 0.398124
vt 0.684932 0.396937
vt 0.683085 0.399742
vt 0.678640 0.399692
vt 0.688303 0.399852
vt 0.689522 0.401539
vt 0.689620 0.398210
vt 0.694486 0.399952
vt 0.683449 0.401494
vt 0.688404 0.396984
vt 0.686682 0.396512
vt 0.690038 0.399888
vn -0.9146 -0.2453 0.3214
vn 0.6038 0.1613 0.7806
vn -0.6693 -0.6702 0.3207
vn 0.4427 0.4404 0.7810
vn -0.2446 -0.9155 0.3194
vn 0.1633 0.6016 0.7819
vn 0.2463 -0.9155 0.3181
vn -0.1593 0.6016 0.7827
vn 0.6710 -0.6702 0.3171
vn -0.4385 0.4406 0.7833
vn 0.9163 -0.2453 0.3166
vn -0.5997 0.1613 0.7838
vn 0.9163 0.2453 0.3167
vn -0.5997 -0.1610 0.7839
vn 0.6710 0.6701 0.3173
vn -0.4385 -0.4404 0.7834
vn 0.2462 0.9154 0.3183
vn -0.1591 -0.6018 0.7826
vn -0.2446 0.9154 0.3197
vn 0.1629 -0.6017 0.7820
vn -0.6693 0.6702 0.3208
vn 0.4427 -0.4403 0.7811
vn -0.9146 0.2453 0.3214
vn 0.6038 -0.1613 0.7807
vn -0.2997 -0.0808 0.9506
vn 0.3051 0.0811 0.9489
vn -0.2188 -0.2213 0.9503
vn 0.2240 0.2216 0.9491
vn -0.0781 -0.3029 0.9498
vn 0.0835 0.3026 0.9495
vn 0.0833 -0.3025 0.9495
vn -0.0783 0.3029 0.9498
vn 0.2239 -0.2214 0.9491
vn -0.2187 0.2213 0.9504
vn 0.3051 -0.0811 0.9489
vn -0.2997 0.0808 0.9506
vn 0.0022 0.0001 1.0000
vn 0.0028 0.0000 1.0000
vn 0.0030 0.0004 1.0000
vn 0.0035 -0.0007 1.0000
vn 0.0026 -0.0000 1.0000
vn 0.0028 -0.0004 1.0000
vn 0.0028 -0.0003 1.0000
vn 0.0028 0.0003 1.0000
vn 0.0028 0.0004 1.0000
vn 0.0033 0.0002 1.0000
vn 0.0025 0.0000 1.0000
vn 0.0021 0.0000 1.0000
vn 0.0025 0.0010 1.0000
vn 0.0021 -0.0001 1.0000
vn 0.0022 -0.0001 1.0000
vn 0.0033 -0.0002 1.0000
vn 0.0030 -0.0004 1.0000
vn -0.9146 -0.2453 0.3215
vn 0.6038 0.1614 0.7806
vn -0.6694 -0.6701 0.3205
vn 0.4424 0.4405 0.7812
vn -0.2443 -0.9155 0.3197
vn 0.2460 -0.9155 0.3184
vn -0.1590 0.6019 0.7826
vn 0.6711 -0.6702 0.3170
vn -0.4383 0.4406 0.7834
vn -0.5997 0.1610 0.7839
vn 0.9163 0.2454 0.3165
vn -0.5997 -0.1612 0.7838
vn -0.4384 -0.4406 0.7834
vn -0.1586 -0.6017 0.7828
vn 0.1631 -0.6017 0.7819
vn -0.6694 0.6701 0.3209
vn 0.4427 -0.4404 0.7811
vn -0.9146 0.2454 0.3215
vn 0.6038 -0.1613 0.7806
vn -0.3002 -0.0821 0.9503
vn -0.2189 -0.2209 0.9504
vn 0.2237 0.2216 0.9491
vn -0.0788 -0.3020 0.9500
vn 0.0843 0.3029 0.9493
vn 0.0843 -0.3029 0.9493
vn -0.0789 0.3022 0.9500
vn 0.2238 -0.2218 0.9491
vn -0.2192 0.2212 0.9503
vn -0.3002 0.0821 0.9503
vn 0.0017 0.0014 1.0000
vn 0.0013 0.0012 1.0000
vn 0.0025 0.0001 1.0000
vn 0.0029 -0.0004 1.0000
vn 0.0028 -0.0002 1.0000
vn 0.0028 0.0002 1.0000
vn 0.0029 0.0003 1.0000
vn 0.0018 -0.0004 1.0000
vn 0.0022 0.0004 1.0000
vn 0.0035 -0.0017 1.0000
vn 0.0024 -0.0002 1.0000
vn 0.0018 -0.0013 1.0000
vn 0.0018 0.0004 1.0000
vn 0.0025 -0.0001 1.0000
usemtl Clock_main
s off
f 1/1/1 3/2/1 4/3/1
f 5/4/2 7/5/2 8/6/2
f 9/7/3 2/8/3 1/1/3
f 11/9/4 6/10/4 5/4/4
f 13/11/5 10/12/5 9/7/5
f 16/13/6 11/9/6 15/14/6
f 18/15/7 13/11/7 17/16/7
f 19/17/8 16/13/8 15/14/8
f 22/18/9 17/16/9 21/19/9
f 24/20/10 19/17/10 23/21/10
f 8/6/11 21/19/11 25/22/11
f 3/2/12 24/20/12 23/21/12
f 5/4/13 25/22/13 27/23/13
f 3/2/14 28/24/14 26/25/14
f 29/26/15 5/4/15 27/23/15
f 2/8/16 30/27/16 28/24/16
f 15/14/17 29/26/17 31/28/17
f 14/29/18 30/27/18 10/12/18
f 19/17/19 31/28/19 33/30/19
f 14/29/20 34/31/20 32/32/20
f 35/33/21 19/17/21 33/30/21
f 22/18/22 34/31/22 18/15/22
f 3/2/23 35/33/23 4/3/23
f 22/18/24 7/5/24 36/34/24
f 37/35/25 26/25/25 28/24/25
f 39/36/26 7/5/26 6/10/26
f 41/37/27 28/24/27 30/27/27
f 12/38/28 39/36/28 6/10/28
f 43/39/29 30/27/29 32/32/29
f 16/13/30 42/40/30 12/38/30
f 45/41/31 32/32/31 34/31/31
f 20/42/32 44/43/32 16/13/32
f 36/34/33 45/41/33 34/31/33
f 48/44/34 20/42/34 24/20/34
f 7/5/35 47/45/35 36/34/35
f 26/25/36 48/44/36 24/20/36
f 49/46/37 44/43/37 46/47/37
f 51/48/38 53/49/38 50/50/38
f 54/51/39 56/52/39 57/53/39
f 37/35/40 55/54/40 38/55/40
f 52/56/41 59/57/41 53/49/41
f 60/58/42 45/41/42 47/45/42
f 40/59/43 60/58/43 47/45/43
f 59/57/44 40/59/44 39/36/44
f 53/49/45 39/36/45 42/40/45
f 44/43/46 53/49/46 42/40/46
f 49/46/47 51/48/47 50/50/47
f 48/44/48 49/46/48 46/47/48
f 38/55/49 62/60/49 48/44/49
f 51/48/38 61/61/38 52/56/38
f 41/37/50 56/52/50 37/35/50
f 43/39/51 57/53/51 41/37/51
f 61/61/52 43/39/52 45/41/52
f 62/60/53 54/51/53 49/46/53
f 51/48/47 57/53/47 63/62/47
f 60/58/41 52/56/41 61/61/41
f 1/1/54 2/8/54 3/2/54
f 5/4/55 6/10/55 7/5/55
f 9/7/56 10/12/56 2/8/56
f 11/9/57 12/38/57 6/10/57
f 13/11/58 14/29/58 10/12/58
f 16/13/6 12/38/6 11/9/6
f 18/15/59 14/29/59 13/11/59
f 19/17/60 20/42/60 16/13/60
f 22/18/61 18/15/61 17/16/61
f 24/20/62 20/42/62 19/17/62
f 8/6/11 22/18/11 21/19/11
f 3/2/63 26/25/63 24/20/63
f 5/4/64 8/6/64 25/22/64
f 3/2/65 2/8/65 28/24/65
f 29/26/15 11/9/15 5/4/15
f 2/8/66 10/12/66 30/27/66
f 15/14/17 11/9/17 29/26/17
f 14/29/67 32/32/67 30/27/67
f 19/17/19 15/14/19 31/28/19
f 14/29/68 18/15/68 34/31/68
f 35/33/69 23/21/69 19/17/69
f 22/18/70 36/34/70 34/31/70
f 3/2/71 23/21/71 35/33/71
f 22/18/72 8/6/72 7/5/72
f 37/35/73 38/55/73 26/25/73
f 39/36/26 40/59/26 7/5/26
f 41/37/74 37/35/74 28/24/74
f 12/38/75 42/40/75 39/36/75
f 43/39/76 41/37/76 30/27/76
f 16/13/77 44/43/77 42/40/77
f 45/41/78 43/39/78 32/32/78
f 20/42/79 46/47/79 44/43/79
f 36/34/80 47/45/80 45/41/80
f 48/44/81 46/47/81 20/42/81
f 7/5/35 40/59/35 47/45/35
f 26/25/82 38/55/82 48/44/82
f 49/46/47 50/50/47 44/43/47
f 51/48/38 52/56/38 53/49/38
f 54/51/83 55/54/83 56/52/83
f 37/35/84 56/52/84 55/54/84
f 52/56/85 58/63/85 59/57/85
f 60/58/86 61/61/86 45/41/86
f 40/59/87 58/63/87 60/58/87
f 59/57/88 58/63/88 40/59/88
f 53/49/89 59/57/89 39/36/89
f 44/43/38 50/50/38 53/49/38
f 49/46/90 54/51/90 51/48/90
f 48/44/91 62/60/91 49/46/91
f 38/55/92 55/54/92 62/60/92
f 51/48/38 63/62/38 61/61/38
f 41/37/93 57/53/93 56/52/93
f 43/39/47 63/62/47 57/53/47
f 61/61/38 63/62/38 43/39/38
f 62/60/94 55/54/94 54/51/94
f 51/48/95 54/51/95 57/53/95
f 60/58/96 58/63/96 52/56/96
